<?xml version="1.0" encoding="UTF-8"?>
<!DOCTYPE svg PUBLIC "-//W3C//DTD SVG 1.1//EN" "http://www.w3.org/Graphics/SVG/1.1/DTD/svg11.dtd">
<!-- Creator: CorelDRAW X7 -->
<svg xmlns="http://www.w3.org/2000/svg" xml:space="preserve" width="15.4875mm" height="9.1805mm" version="1.1" style="shape-rendering:geometricPrecision; text-rendering:geometricPrecision; image-rendering:optimizeQuality; fill-rule:evenodd; clip-rule:evenodd"
viewBox="0 0 206 122"
 xmlns:xlink="http://www.w3.org/1999/xlink">
 <defs>
  <style type="text/css">
   <![CDATA[
    .fil0 {fill:red}
    .fil1 {fill:white;fill-rule:nonzero}
   ]]>
  </style>
 </defs>
 <g id="Слой_x0020_1">
  <metadata id="CorelCorpID_0Corel-Layer"/>
  <g id="_2767136302688">
   <path class="fil0" d="M142 40l0 -6 8 0 0 -6 -25 0 0 6 0 0 0 6 17 0zm12 -14l4 0 0 -8 0 -1 0 -2 1 0 1 0 8 0 0 -6 -9 0 0 -9 -9 0 0 9 -8 0 0 6 10 0 1 0 1 0 0 2 0 1 0 8 0 0zm-44 17l-2 0 0 9 2 0 0 -9zm15 17l0 0 0 6 25 0 0 -6 -8 0 0 -7 -17 0 0 7zm17 19l0 7 8 0 0 9 9 0 0 -9 9 0 0 -7 -8 0 -1 0 -1 0 0 -1 0 -1 0 -8 -3 0 0 0 0 8 0 1 0 1 -2 0 -1 0 -10 0zm-52 16l0 0 -17 0 0 -9 9 0 0 -9 8 0 0 -8 9 0 0 -9 9 0 0 9 2 0 0 8 0 1 0 1 1 0 1 0 13 0 0 7 8 0 0 9 -17 0 0 -9 -8 0 0 -9 -9 0 0 9 -9 0 0 9zm26 -95l0 0 17 0 0 9 -8 0 0 6 -13 0 -1 0 -1 0 0 2 0 1 0 8 -2 0 0 8 -3 0c0,-1 0,-1 0,-2 -1,-2 -1,-3 -1,-4 -1,-2 -2,-3 -2,-4 -1,-1 -2,-2 -3,-3l0 0 0 0c-1,-1 -2,-2 -4,-3 -1,0 -2,-1 -4,-1 -1,-1 -3,-1 -4,-1 -2,-1 -3,-1 -5,-1l0 0 0 -6 -9 0 0 -9 17 0 0 9 9 0 0 8 9 0 0 -8 8 0 0 -9zm60 60l0 0 -3 0 0 9 3 0 0 -9 8 0 -5 -8 -3 0 0 8zm-26 -17l0 0 8 0 0 9 -8 0 0 -9zm33 -9l2 0 0 3 -2 -3zm5 9l5 0 0 8 -5 -8zm-132 17l0 0 0 9 -9 0 0 8 -8 0 0 9 8 0 0 9 9 0 0 -9 9 0 0 -7 -6 0 -1 0 -2 0 0 -1 0 -1 0 -17zm15 17l2 0 0 -8 9 0 0 -9 8 0 0 -4c-1,0 -2,0 -3,0 -2,1 -3,1 -5,1l-11 0 0 20 0 0zm27 -25l1 0 0 -1 0 0 -1 1zm-8 -15l0 -2c0,0 0,0 0,-1l0 0 -8 0 0 -6 -11 0 0 15 2 0 0 1 9 0c1,0 1,0 2,0 1,0 1,0 2,-1 0,0 1,0 1,0l0 0c1,0 1,-1 1,-1l0 0c1,0 1,-1 1,-1 0,-1 1,-1 1,-2l0 0c0,0 0,-1 0,-1 0,0 0,-1 0,-1zm-25 -22l0 -6 -9 0 0 -9 -9 0 0 9 -8 0 0 8 8 0 0 9 9 0 0 8 0 0 0 -16 0 -1 0 -2 2 0 1 0 6 0zm-30 45l-5 0 0 -8 -8 0 0 -9 8 0 0 -9 4 0c0,0 0,0 0,0 0,-1 -1,-2 -1,-3l0 0c-1,0 -2,-1 -2,-1 0,0 -1,-1 -1,-1l0 5 -8 0 0 9 -9 0 0 0 0 9 9 0 0 8 8 0 0 5c0,0 1,0 1,0 0,-1 1,-1 2,-2 0,0 1,-1 1,-2 0,0 0,-1 1,-1zm16 -17l5 0 0 9 -5 0 0 -9z"/>
   <path class="fil1" d="M38 111l0 0 2 -12 4 0 -5 17 -3 0 -3 -12 0 0 0 0 -4 12 -3 0 -5 -17 4 0 3 11 0 0 3 -11 3 0 4 12zm16 5c-2,0 -4,-1 -6,-3 -1,-1 -2,-3 -2,-6l0 0c0,-3 1,-5 2,-6 2,-2 3,-3 5,-3 3,0 5,1 6,2 1,2 2,4 2,6l0 2 -11 0 0 0c0,2 0,3 1,4 1,0 2,1 3,1 1,0 2,0 3,-1 1,0 1,0 2,-1l1 3c0,0 -1,1 -2,1 -1,1 -3,1 -4,1zm-1 -15c0,0 -1,1 -2,1 0,1 -1,2 -1,3l0 0 7 0 0 0c0,-1 0,-2 -1,-3 -1,0 -1,-1 -3,-1zm26 7c0,2 -1,4 -2,6 -1,1 -3,2 -5,2 -1,0 -2,0 -3,-1 -1,0 -1,-1 -2,-2l0 3 -3 0 0 -25 3 0 0 9c1,0 2,-1 2,-1 1,-1 2,-1 3,-1 2,0 4,1 5,3 1,1 2,4 2,6l0 1zm-4 -1c0,-1 -1,-3 -1,-4 -1,-1 -2,-2 -3,-2 -1,0 -2,1 -2,1 -1,0 -1,1 -2,1l0 8c1,0 1,1 2,1 0,1 1,1 2,1 1,0 2,-1 3,-2 0,-1 1,-2 1,-3l0 -1zm14 0l-8 0 0 -3 8 0 0 3zm3 0c0,-2 0,-5 2,-6 1,-2 2,-3 4,-3 1,0 2,0 3,1 1,0 1,1 2,1l0 -9 4 0 0 25 -4 0 0 -3c-1,1 -1,2 -2,2 -1,1 -2,1 -3,1 -2,0 -3,-1 -4,-2 -2,-2 -2,-4 -2,-6l0 -1zm4 1c0,1 0,2 0,3 1,1 2,2 3,2 1,0 2,0 2,-1 1,0 1,-1 2,-1l0 -8c-1,0 -1,-1 -2,-1 0,0 -1,-1 -2,-1 -1,0 -2,1 -2,2 -1,1 -1,3 -1,4l0 1zm22 8c-2,0 -4,-1 -6,-3 -1,-1 -2,-3 -2,-6l0 0c0,-3 1,-5 2,-6 2,-2 3,-3 6,-3 2,0 4,1 5,2 1,2 2,4 2,6l0 2 -11 0 0 0c0,2 0,3 1,4 1,0 2,1 3,1 1,0 2,0 3,-1 1,0 1,0 2,-1l1 3c0,0 -1,1 -2,1 -1,1 -3,1 -4,1zm0 -15c-1,0 -2,1 -3,1 0,1 -1,2 -1,3l0 0 7 0 0 0c0,-1 0,-2 -1,-3 -1,0 -1,-1 -2,-1zm19 10c0,-1 0,-1 0,-2 -1,0 -2,0 -3,-1 -2,0 -4,-1 -5,-1 -1,-1 -1,-2 -1,-4 0,-1 0,-2 1,-3 2,-1 3,-2 5,-2 2,0 4,1 5,2 1,1 2,2 2,4l0 0 -4 0c0,-1 0,-2 -1,-2 0,-1 -1,-1 -2,-1 -1,0 -2,0 -2,1 0,0 -1,1 -1,1 0,1 1,1 1,2 0,0 1,0 3,1 2,0 3,1 5,1 1,1 1,2 1,4 0,1 -1,2 -2,3 -1,1 -3,2 -5,2 -2,0 -4,-1 -5,-2 -1,-1 -2,-2 -2,-4l0 0 4 0c0,1 0,2 1,2 0,1 1,1 2,1 1,0 2,0 2,-1 1,0 1,0 1,-1zm12 5l-4 0 0 -17 4 0 0 17zm0 -22l-4 0 0 -3 4 0 0 3zm3 13c0,-2 1,-5 2,-6 1,-2 3,-3 5,-3 1,0 2,0 3,1 0,0 1,1 1,2l1 -2 3 0 0 17c0,2 -1,3 -2,5 -1,1 -3,1 -6,1 -1,0 -1,0 -2,0 -1,0 -2,-1 -3,-1l1 -3c0,0 1,1 2,1 1,0 1,0 2,0 2,0 3,0 3,-1 1,0 1,-1 1,-2l0 -2c0,0 -1,1 -2,1 0,1 -1,1 -2,1 -2,0 -4,-1 -5,-2 -1,-2 -2,-4 -2,-6l0 -1zm4 1c0,1 0,2 1,3 1,1 1,2 3,2 1,0 1,0 2,-1 0,0 1,-1 1,-1l0 -8c0,0 -1,-1 -1,-1 -1,0 -1,-1 -2,-1 -1,0 -2,1 -3,2 -1,1 -1,3 -1,4l0 1zm19 -9l0 2c0,-1 1,-2 2,-2 1,-1 2,-1 3,-1 1,0 3,1 4,2 1,1 1,3 1,5l0 11 -4 0 0 -11c0,-1 0,-2 0,-3 -1,0 -2,-1 -3,-1 0,0 -1,0 -2,1 0,0 -1,1 -1,1l0 13 -4 0 0 -17 4 0z"/>
   <path class="fil1" d="M48 53c0,7 -2,13 -7,17 -4,5 -10,8 -17,8 -7,0 -13,-3 -17,-8 -5,-4 -7,-10 -7,-17l0 -11c0,-7 2,-13 7,-18 4,-5 10,-7 17,-7 7,0 13,2 17,7 5,5 7,11 7,18l0 11zm-10 -11c0,-5 -1,-9 -4,-12 -2,-3 -6,-5 -10,-5 -5,0 -8,2 -10,5 -3,3 -4,7 -4,12l0 11c0,5 1,9 4,12 2,3 5,5 10,5 4,0 8,-2 10,-5 3,-3 4,-7 4,-12l0 -11zm31 12l0 23 -10 0 0 -59 23 0c6,0 11,1 15,5 4,3 6,8 6,13 0,6 -2,10 -6,13 -4,4 -9,5 -15,5l-13 0zm0 -8l13 0c4,0 6,0 8,-2 2,-2 3,-5 3,-8 0,-3 -1,-5 -3,-7 -2,-2 -4,-3 -8,-3l-13 0 0 20zm79 4l-26 0 0 19 30 0 0 8 -40 0 0 -59 40 0 0 8 -30 0 0 16 26 0 0 8zm58 27l-9 0 -26 -43 -1 0 0 43 -10 0 0 -59 10 0 26 43 1 0 0 -43 9 0 0 59z"/>
  </g>
 </g>
</svg>
